<svg xmlns="http://www.w3.org/2000/svg" width="320" height="220" viewBox="0 0 320 220" role="img" aria-label="Confetti illustration">
  <rect width="320" height="220" fill="none"/>
  <g fill="#ffe066">
    <rect x="25" y="40" width="18" height="6" transform="rotate(25 34 43)"/>
    <rect x="78" y="26" width="18" height="6" transform="rotate(-30 87 29)"/>
    <rect x="145" y="50" width="18" height="6" transform="rotate(35 154 53)"/>
    <rect x="210" y="22" width="18" height="6" transform="rotate(-18 219 25)"/>
    <rect x="278" y="52" width="18" height="6" transform="rotate(28 287 55)"/>
  </g>
  <g fill="#ff6b6b">
    <circle cx="55" cy="95" r="7"/>
    <circle cx="126" cy="122" r="7"/>
    <circle cx="188" cy="92" r="7"/>
    <circle cx="266" cy="126" r="7"/>
  </g>
  <g fill="#4ecdc4">
    <polygon points="40,170 52,145 64,170"/>
    <polygon points="112,186 124,160 136,186"/>
    <polygon points="205,176 217,151 229,176"/>
    <polygon points="276,186 288,160 300,186"/>
  </g>
</svg>
